<?xml version="1.0" encoding="utf-8"?>
<!-- Generator: Adobe Illustrator 18.1.1, SVG Export Plug-In . SVG Version: 6.00 Build 0)  -->
<svg version="1.1" id="Ebene_1" xmlns="http://www.w3.org/2000/svg" xmlns:xlink="http://www.w3.org/1999/xlink" x="0px" y="0px"
	 viewBox="0 0 55 23" enable-background="new 0 0 55 23" xml:space="preserve">
<path fill="#3C3C46" d="M3.9,23H0l5.1-11.9h23.8l-1.9,4.6H7.1L3.9,23z M6,8.9l0.1-0.3C6.7,7.2,7.7,6.1,9,5.2
	c1.3-0.9,2.7-1.4,4.1-1.4H33l-1.3,5.1H6z"/>
<polygon fill="#3C3C46" points="55,3.8 50.7,3.8 45.1,8.9 49.4,8.9 "/>
<polygon fill="#3C3C46" points="42,11.1 31.9,11.1 32.5,13.3 22,23 26.3,23 34.4,15.6 40.7,15.6 42.6,23 46.8,23 44.6,13.3 
	47.1,11.1 "/>
<polygon fill="#3C3C46" points="33,8.9 35.8,8.9 34.4,3.8 30.2,3.8 31.3,8.9 "/>
</svg>
