<?xml version="1.0" encoding="utf-8"?>
<!-- Generator: Adobe Illustrator 18.1.1, SVG Export Plug-In . SVG Version: 6.00 Build 0)  -->
<svg version="1.1" id="Ebene_1" xmlns="http://www.w3.org/2000/svg" xmlns:xlink="http://www.w3.org/1999/xlink" x="0px" y="0px"
	 viewBox="-220.5 -154 470 331" enable-background="new -220.5 -154 470 331" xml:space="preserve">
<rect x="-220.5" y="-154" opacity="0" fill="#FCFEEC" enable-background="new    " width="470" height="331"/>
<g opacity="0.4" enable-background="new    ">
	<path fill="#E6E49C" d="M14.5,59.5c-26.5,0-48-21.5-48-48c0-26.5,21.5-48,48-48c26.5,0,48,21.5,48,48C62.5,38,41,59.5,14.5,59.5z
		 M14.5-30.5c-23.2,0-42,18.8-42,42c0,23.2,18.8,42,42,42c23.2,0,42-18.8,42-42C56.5-11.7,37.7-30.5,14.5-30.5z"/>
</g>
<g opacity="0.4">
	<path fill="#E6E49C" d="M49.5,20.2H23.2v26.3H5.8V20.2h-26.3V2.7H5.8v-26.3h17.4V2.7h26.3V20.2z"/>
</g>
</svg>
