<?xml version="1.0" encoding="utf-8"?>
<!-- Generator: Adobe Illustrator 16.0.4, SVG Export Plug-In . SVG Version: 6.00 Build 0)  -->
<!DOCTYPE svg PUBLIC "-//W3C//DTD SVG 1.1//EN" "http://www.w3.org/Graphics/SVG/1.1/DTD/svg11.dtd">
<svg version="1.1" id="Ebene_1" xmlns="http://www.w3.org/2000/svg" xmlns:xlink="http://www.w3.org/1999/xlink" x="0px" y="0px"
	 width="952px" height="60px" viewBox="0 0 952 60" enable-background="new 0 0 952 60" xml:space="preserve">
<path fill="#3C3C46" d="M951,32.409h-80.062v26.377h10.422V43.188h57.085c3.054,0,5.421-0.108,7.106-0.326
	c1.684-0.218,2.934-0.707,3.751-1.471c0.814-0.762,1.303-1.85,1.461-3.266C950.921,36.711,951,34.805,951,32.409 M856.096,27.591
	h10.422V1.215h-10.422V27.591z M866.045,52.335c0.314-1.688,0.473-3.865,0.473-6.533V32.409h-10.422v15.343H837.88H517.748
	l-938.955,0.244v10.79H786.457h51.423h16.163c2.632,0,4.763-0.176,6.396-0.531c1.631-0.353,2.895-1.006,3.789-1.96
	C865.123,55.344,865.729,54.022,866.045,52.335 M881.36,11.993h59.217v4.817H881.36V11.993z M870.938,27.591H951V14.159
	c0-2.659-0.146-4.831-0.435-6.514c-0.29-1.682-0.895-2.998-1.815-3.949c-0.922-0.948-2.198-1.601-3.829-1.953
	c-1.632-0.353-3.79-0.529-6.476-0.529h-67.507V27.591z"/>
</svg>
